<?xml version="1.0" encoding="utf-8"?>
<!-- Designed by Vexels.com - 2019 All Rights Reserved - https://vexels.com/terms-and-conditions/  -->
<svg version="1.1" id="Capa_1" xmlns="http://www.w3.org/2000/svg" xmlns:xlink="http://www.w3.org/1999/xlink" x="0px" y="0px"
	 viewBox="0 0 1200 1200" enable-background="new 0 0 1200 1200" xml:space="preserve">
<g>
	<g>
		<path fill="#F8DA37" d="M215.94,797.224c13.769-16.185,17.648-37.538,29.457-53.434c1.807-2.429,19.776-3.62,19.873-2.136
			c2.739,41.844,16.549,98.856,46.595,133.186c31.639,36.151,71.381,67.652,121.176,41.795c13.001-6.754,22.815-15.163,29.45-25.246
			c9.264-14.079,26.043-48.773,9.098-63.183c-12.817-10.9-37.314-1.495-52.117-1.292c-52.222,0.715-91.377-29.545-90.98-83.364
			c31.05,2.772,54.713-8.13,70.996-32.705c2.084-3.203,3.755-6.491,5.08-9.849c-1.616,16.644-1.692,31.545-0.214,44.691
			c3.624,32.23,26.568,77.336,66.036,49.892c11.546-8.036,22.305-19.055,32.277-33.064c1.932-2.715,3.738-5.396,5.535-8.076
			c6.899,22.964,23.962,29.288,35.358,31.655c11.234,1.262,22.908-3.428,35.026-14.07c12.114-10.637,22.841-25.325,32.184-44.059
			c2.016,1.315,4.22,2.098,6.605,2.373c-0.298,0.36-0.589,0.77-0.888,1.127c3.872,30.448,39.912,46.25,62.912,25.157
			c7.384-6.768,12.082-14.671,14.105-23.71c4.416-22.911,8.267-43.155,11.549-60.729c4.92-18.224,10.316-31.418,16.187-39.585
			c5.09-7.083,11.014-11,17.758-11.78c-7.191,1.026-14.717,45.866-16.225,51.911c-6.451,25.86-18.418,71.212,19.387,79.404
			c9.718,1.277,19.655-2.472,29.814-11.249c10.161-8.774,19.693-19.74,28.59-32.892c1.222-1.806,2.343-3.574,3.507-5.359
			c-4.507,6.911,19.533,25.834,23.972,28.172c34.646,18.247,64.512-24.416,78.404-50.541c14.224,20.687,34.675,51.479,62.609,30.041
			c22.657-17.389,36.781-45.723,47.049-71.763c5.046-12.797,8.013-21.903,8.896-27.319c0.002-5.615-10.492-17.599-14.967-22.638
			c-0.208-1.182-0.836-1.942-1.94-2.226c-1.577-0.402-3.311,0.841-5.206,3.735c-13.38,22.733-25.054,38.011-35.023,45.834
			c-1.487,1.241-2.862,2.242-4.171,3.1c1.142-20.963,4.71-38.334,10.762-52.028c6.307-14.417,14.696-24.421,25.172-30.008
			c6.89-3.675-14.273-28.256-16.675-30.305c-18.047-15.396-40.115-14.144-58.443-0.306c-3.661,2.829-7.072,6.717-10.225,11.664
			c5.042-7.908-24.741-11.972-28.82-11.61c-40.916,3.636-68.868,52.851-79.848,87.481c-3.267,10.302-5.583,20.018-7.016,29.187
			c-0.371,0.601-0.73,1.173-1.096,1.761c2.123-12.89,4.248-30.76,2.018-41.446c-2.855-13.68-8.442-22.972-16.752-27.89
			c-4.402-13.838-12.369-21.948-23.915-24.309c-6.815-1.157-15.082-0.359-24.8,2.405c-0.358,0.102-0.714,0.232-1.072,0.341
			c0.815-1.289,1.663-2.549,2.547-3.776c6.94-9.634,14.073-17.095,21.396-22.387c7.316-5.292,12.872-8.077,16.659-8.359
			c-3.664-13.327-3.739-16.274-15.326-33.001c-12.392-17.889-29.102-19.706-37.504-17.655c-25.431,3.826-39.503,25.746-47.19,48.267
			c-14.371,42.102-14.724,87.438-24.355,130.632c-0.323,1.448-4.136,3.289-5.36,3.822c-3.049-3.458-13.896-5.22-15.128-8.132
			c-2.035-4.807,3.441-12.398,3.441-17.672c0-10.927-1.482-22.563-10.726-32.962c-4.479-5.039-14.684-8.931-28.965-8.975
			c-0.064-0.001-0.129-0.006-0.237-0.008c-0.081,0-0.158,0.014-0.239,0.016c-1.488-0.003-2.978,0.062-4.472,0.232
			c-14.266,1.463-28.525,9.653-42.788,24.577c-14.263,14.926-25.686,34.873-34.268,59.85c-5.758,18.363-12.903,37.071-29.87,47.947
			c1.087-15.6,4.353-34.78,9.86-57.633c5.993-24.892,13.03-47.856,21.11-68.884c8.074-21.028,15.711-33.869,22.905-38.527
			c-3.028-8.294-5.881-15.536-14.384-27.164c-7.743-10.59-22.242-15.98-35.841-14.221c-7.386,0.959-13.793,3.434-19.218,7.42
			c-6.69,5.429-13.913,16.915-21.678,34.462c-7.76,17.546-14.954,38.117-21.582,61.712c-5.964,21.241-10.579,42.458-13.988,63.655
			c-1.066-11.564-5.276-30.814-11.732-37.654c-7.072-7.48-20.143-19.075-45.556-17.946c-0.128,7.617-3.475,15.898-10.036,24.853
			c-2.446,3.339-5.237,6.266-8.368,8.786c0.066-0.473,0.125-0.908,0.192-1.39c3.864-27.753,25.218-102.234-23.903-102.252
			c-38.868-0.006-66.957,64.515-79.622,93.402c-6.777,15.457-15.819,30.245-27.449,42.508c-28.525,2.309-53.576,8.797-75.16,19.466
			c-31.722,15.675-68.477,43.633-75.161,80.791c-9.603,53.297,53.066,75.911,93.871,60.442
			C171.867,837.969,197.282,819.155,215.94,797.224z M586.858,654.721c-2.081,10.086-2.431,19.967-1.041,29.648
			c-4.422,8.59-9.121,15.268-14.105,20.037c-3.128,2.993-6.144,4.952-9.047,5.882c0.096-7.878,1.722-16.897,4.938-27.094
			c4.419-12.992,9.876-23.722,16.379-32.176c2.043-2.66,4.049-4.832,6.024-6.62C588.678,647.559,587.626,650.997,586.858,654.721z
			 M881.306,595.215c5.668-7.279,11.025-11.369,16.083-12.365c-1.125,5.174-2.071,10.448-2.792,15.849
			c-0.886,4.922-2.21,10.046-3.976,15.367c-4.544,13.261-10.193,24.051-16.944,32.367c-5.054,6.221-9.877,9.951-14.47,11.195
			c-0.039-8.406,1.628-18.126,5.061-29.203C868.813,615.043,874.491,603.972,881.306,595.215z"/>
		<path fill="#F8DA37" d="M1136.242,426.574c-3.79-3.223-7.642-5.799-10.511-7.279c-14.906-7.693-34.846-6.682-48.564,3.326
			c-9.016,6.578-16.568,19.846-22.676,39.807c-6.102,19.965-10.62,41.955-13.554,65.976c-2.938,24.024-4.122,45.382-3.552,64.067
			c0.337,11.125,1.374,19.605,3.101,25.484c1.789,14.697,10.083,22.018,15.692,26.364c-0.45,0.121-0.892,0.225-1.352,0.367
			c-6.792,2.385-12.401,6.372-16.836,11.977c-21.004,26.544,17.601,70.08,45.465,46.761c18.488-15.473,7.641-38.078-5.058-52.766
			c10.333,11.952,18.934-28.091,19.403-30.675c2.451-13.384,5.912-29.862,10.389-49.428c4.471-19.565,10.177-39.976,17.115-61.235
			c6.94-21.257,13.141-36.846,23.337-55.687C1153.357,444.837,1144.966,433.992,1136.242,426.574z"/>
		<path fill="#F8DA37" d="M1077.948,776.68c-0.722-0.654-1.468-1.297-2.226-1.936c-0.183-0.155-0.353-0.314-0.538-0.468
			c-0.071-0.06-0.15-0.11-0.222-0.169c-35.623-29.302-110.55-42.118-235.157,4.817c-239.426,90.184-582.339,284.863-663.4,133.275
			c0,0-9.304,22.695-2.169,47.745c0.654,3.445,2.206,7.562,4.98,12.487c0.003,0.005,0.005,0.009,0.008,0.014
			c0.728,1.387,1.534,2.769,2.391,4.147c33.125,56.773,69.809,77.219,149.627,78.714c183.143,3.429,436.493-122.99,514.962-162.239
			c51.425-25.722,124.313-49.46,158.822-47.836c6.969,0.328,11.722,2.058,14.38,4.407c-3.596,8.674-14.764,15.807-36.724,16.707
			l16.62,30.172c0,0,44.729,41.084,98.686-3.068C1127.01,869.698,1124.145,817.26,1077.948,776.68z"/>
	</g>
	<g>
		<g>
			<path fill="#D61A4C" d="M543.755,374.037c-0.332,16.057-25.678,49.623-27.733,85.245
				c-2.055,35.621,158.241,60.465,131.525-18.062s-35.621-83.742-35.621-83.742s43.157,48.876,67.133,74.655
				s163.53-78.248-35.375-128.989c0,0,84.697-25.395,44.28-63.756c-40.417-38.362-107.549-93.014-119.195,27.476
				c0,0-30.219-75.308-93.203-54.817s-78.917,79.403,14.336,98.584c0,0-119.106,0.607-88.965,79.082
				C431.078,468.187,543.755,374.037,543.755,374.037z"/>
			<path fill="#EF165E" d="M705.005,347.444c-23.005-10.618-48.665-12.388-70.786-25.66c-4.424-2.654-12.388-8.848-9.733-12.388
				c6.802-7.849,16.699-9.199,27.128-8.992c20.056-7.525,68.983-30.042,36.349-61.016c-16.36-15.528-37.096-33.723-56.758-41.893
				c-8.733,4.57-16.271,10.759-21.761,18.995c-11.503,17.697-11.503,37.163-20.351,54.859c-1.77,2.654-3.539,6.194-5.309,9.733
				s-8.848,5.309-10.618,0.885c-2.817-5.915-4.734-12.279-6.1-18.891c-7.17-15.009-37.121-68.72-91.5-51.029
				c-21.884,7.12-38.078,18.879-45.996,31.997c1.141,1.219,2.394,2.366,3.793,3.415c21.236,14.157,38.932,27.43,61.053,39.817
				c8.848,4.424,16.812,11.503,20.351,20.351c-9.129,3.32-18.259,5.082-28.118,3.098c-18.896,0.792-112.866,8.292-85.712,78.988
				c2.507,6.528,7.994,21.581,26.086,28.373c11.857,1.796,88.629-52.945,117.828-59.139c0.466,5.829-0.49,11.162-2.38,16.137
				c0.839-0.676,1.284-1.047,1.284-1.047c-0.332,16.057-25.678,49.624-27.733,85.245c-1.253,21.726,57.884,39.441,98.153,32.142
				c2.052-8.282,0.726-18.041-0.307-26.298c-4.424-38.048-18.581-73.441-20.351-111.488c11.739-7.596,19.706,0.976,24.741,10.995
				c12.874,14.522,42.45,47.771,60.8,67.501c12.287,13.211,54.924-7.671,66.81-38C742.935,372.082,724.286,356.343,705.005,347.444z
				"/>
			<path fill="#FF6275" d="M611.925,357.478c0,0,0.649,0.735,1.826,2.065C612.487,357.808,611.925,357.478,611.925,357.478z"/>
			<path fill="#FF6275" d="M611.925,357.478c0,0,0.649,0.735,1.826,2.065C612.487,357.808,611.925,357.478,611.925,357.478z"/>
			<path fill="#E84F85" d="M611.925,357.478c0,0,0.649,0.735,1.826,2.065C612.487,357.808,611.925,357.478,611.925,357.478z"/>
			<path fill="#CB3E8D" d="M613.751,359.543c-1.264-1.735-1.826-2.065-1.826-2.065S612.574,358.213,613.751,359.543z"/>
			<path fill="#F8DA37" d="M708.654,162.526c1.054-1.765,1.671-3.821,1.671-6.026c0-6.509-5.277-11.786-11.786-11.786
				c-2.234,0-4.315,0.633-6.095,1.713c-1.627-1.132-3.602-1.8-5.734-1.8c-5.556,0-10.06,4.504-10.06,10.059
				c0,0.955,0.142,1.875,0.39,2.75c-6.259,2.216-10.751,8.17-10.751,15.188c0,1.517,0.224,2.979,0.616,4.371
				c-0.205-0.011-0.408-0.031-0.616-0.031c-6.509,0-11.786,5.277-11.786,11.786c0,4.004,2.001,7.536,5.054,9.666
				c-35.167,31.192-114.705,106.427-94.81,132.342c18.799,24.486,16.122-14.949,57.879-66.244
				c15.256-18.741,36.878-47.68,50.987-62.262c2.532,1.654,5.551,2.623,8.8,2.623c7.511,0,13.804-5.143,15.597-12.095
				c1.238,0.305,2.526,0.484,3.858,0.484c8.906,0,16.125-7.219,16.125-16.125C717.994,170.66,714.165,165.089,708.654,162.526z"/>
		</g>
	</g>
	<g>
		<path fill="#EF165E" d="M201.021,776.335c14.073-16.542,24.141-35.186,30.199-55.935c2.708,0.131,33.51,0.175,33.51,1.068
			c0,1.469,0,3.121,0,4.957c0,59.945,26.809,171.681,101.89,177.942c21.338,1.003,38.501-1.871,51.502-8.622
			c13.001-6.754,22.815-15.163,29.441-25.232c6.629-10.071,11.013-19.664,13.158-28.782c2.145-9.121,2.964-15.472,2.46-19.058
			c0.325,2.309-39.784,4.185-43.71,4.238c-19.715,0.267-40.388-3.481-57.179-14.299c-31.283-20.155-48.991-52.969-48.719-89.954
			c31.05,2.771,54.713-8.131,70.996-32.706c6.183-9.503,9.025-19.687,8.52-30.56c-0.504-10.864-4.294-20.04-11.359-27.527
			c-7.072-7.48-17.484-10.9-31.236-10.265c-0.128,7.617-3.475,15.898-10.036,24.853c-6.561,8.958-15.589,14.965-27.071,18.032
			c0.501-5.591,1.828-16.102,3.976-31.525c1.766-12.786,3.434-25.376,5.014-37.764c1.58-12.387,2.303-21.142,2.18-26.262
			c-0.886-11.599-6.282-17.379-16.189-17.337c-9.908,0.042-22.086,7.481-36.536,22.315c-14.455,14.837-28.811,38.527-43.071,71.078
			c-4.294,9.794-8.52,17.831-12.686,24.109c-4.165,6.285-9.089,12.42-14.767,18.408c-28.525,2.309-53.576,8.797-75.158,19.466
			c-21.585,10.666-38.879,23.293-51.874,37.879c-13.003,14.589-20.766,28.89-23.287,42.908
			c-2.527,14.018,1.009,25.596,10.602,34.725c10.727,9.185,24.328,12.98,40.797,11.386c16.472-1.591,33.51-7.442,51.116-17.554
			C171.108,806.21,186.948,792.88,201.021,776.335z M264.919,628.617c6.876-12.761,14.134-23.687,21.757-32.792
			c-8.579,19.342-14.693,47.121-18.349,83.347c-8.459,1.694-17.294,3.139-26.505,4.349
			C250.275,659.799,257.976,641.496,264.919,628.617z M176.979,734.176c-3.976,5.637-9.153,10.931-15.525,15.875
			c-6.372,4.944-13.98,8.296-22.812,10.054c-10.855,1.49-15.968-0.79-15.335-6.835c0.63-6.043,6.343-12.654,17.134-19.821
			c10.791-7.171,25.905-11.805,45.342-13.904C183.887,723.662,180.955,728.539,176.979,734.176z"/>
		<path fill="#EF165E" d="M421.296,779.518c11.234,4.81,22.626,3.201,34.175-4.83c11.546-8.036,22.305-19.055,32.277-33.064
			c5.335-7.496,10.115-14.848,14.422-22.08c0.146,4.959,0.639,9.7,1.485,14.218c3.405,18.209,11.735,28.689,24.987,31.44
			c11.234,1.262,22.908-3.428,35.026-14.07c12.114-10.637,22.841-25.325,32.184-44.059c4.165,2.717,9.115,3.212,14.863,1.495
			c5.742-1.717,10.505-3.935,14.295-6.666c5.499-4.465,10.379-10.458,14.656-17.941c-6.854,21.735-14.578,37.58-23.18,47.489
			c6.693,10.365,14.516,15.362,23.477,14.991c8.961-0.373,17.134-3.941,24.517-10.712c7.383-6.768,12.082-14.671,14.105-23.71
			c4.416-22.911,8.267-43.155,11.549-60.729c4.92-18.224,10.316-31.419,16.187-39.585c5.868-8.165,12.84-12.138,20.92-11.931
			c7.695,0.768,11.642,6.669,11.832,17.714c0.189,11.049-2.81,23.709-8.993,37.984c-9.593,21.594-14.674,39.142-15.239,52.641
			c-0.571,13.502,3.562,21.212,12.4,23.127c9.718,1.277,19.655-2.472,29.814-11.249c10.161-8.774,19.693-19.74,28.59-32.892
			c4.164-6.151,7.956-12.166,11.441-18.069c0.224,4.375,0.663,8.617,1.431,12.656c3.597,18.909,12.275,29.82,26.03,32.729
			c11.864,1.396,24.203-3.649,37.014-15.14c12.808-11.494,24.074-27.316,33.796-47.461c1.892,9.838,5.017,18.422,9.369,25.753
			c4.355,7.337,10.132,12.776,17.326,16.318c11.228,4.81,21.926,3.32,32.087-4.474c10.159-7.797,19.279-18.507,27.359-32.128
			c8.074-13.621,14.639-26.835,19.687-39.633c5.046-12.797,8.013-21.903,8.896-27.319c0.254-2.246-0.408-3.569-1.988-3.974
			c-1.577-0.402-3.311,0.841-5.206,3.735c-13.38,22.733-25.054,38.011-35.023,45.834c-7.194,6.005-12.307,7.521-15.335,4.549
			c-3.031-2.967-4.355-9.078-3.976-18.322c0.88-22.798,4.544-41.475,10.983-56.044c6.308-14.42,14.7-24.426,25.179-30.012
			c-4.798-12.521-13.1-19.486-24.896-20.899c-11.802-1.406-23.573,2.319-35.308,11.18c-3.661,2.829-7.072,6.717-10.226,11.664
			c-2.775-5.521-6.943-9.003-12.493-10.441c-5.556-1.437-10.981-1.823-16.283-1.165c-14.767,1.425-29.566,9.895-44.394,25.405
			c-14.831,15.51-26.666,36.203-35.498,62.072c-3.267,10.302-5.583,20.018-7.016,29.187c-3.241,5.242-6.279,10.016-9.075,14.233
			c-5.177,7.803-9.217,12.196-12.117,13.181c-4.294,0.854-6.218-0.743-5.774-4.798c0.443-4.049,2.239-10.144,5.396-18.274
			c8.832-25.134,11.359-46.771,7.573-64.917c-3.786-18.141-12.371-28.575-25.747-31.311c-6.815-1.157-15.082-0.359-24.8,2.405
			c-9.721,2.765-19.375,8.153-28.969,16.156c0.125-0.389,0.192-0.768,0.192-1.135c0.251-1.631,0.565-3.218,0.944-4.751
			c2.653-13.429,7.445-24.96,14.388-34.593c6.94-9.634,14.073-17.095,21.396-22.387c7.316-5.292,12.872-8.077,16.659-8.359
			c-3.664-13.327-9.342-22.025-17.038-26.094c-7.701-4.071-15.746-5.082-24.138-3.034c-8.398,2.051-15.621,5.608-21.678,10.685
			c-9.217,8.184-16.633,20.504-22.247,36.944c-5.614,16.447-9.561,34.349-11.829,53.712c-3.143,27.946-7.325,53.613-12.546,77.011
			c-1.183,0.387-2.489,1.579-3.929,3.656c-13.251,18.915-19.941,22.139-20.066,9.678c0.125-3.081,0.694-6.731,1.702-10.944
			c1.641-6.153,2.18-11.874,1.612-17.167c-0.568-5.286-4.579-8.213-12.024-8.775c-3.533-0.13-6.751,0.359-9.654,1.468
			c5.428-4.601,8.896-11.558,10.412-20.877c-0.758-9.661-4.291-15.729-10.599-18.201c-6.314-2.472-12.686-3.34-19.122-2.607
			c-14.266,1.463-28.525,9.653-42.788,24.577c-14.263,14.926-25.686,34.873-34.265,59.84c-2.516,8.021-4.397,15.643-5.776,22.949
			c-2.015,2.956-3.848,5.468-5.493,7.529c-4.355,5.46-9.182,10.293-14.481,14.505c-7.322,5.906-12.464,7.395-15.432,4.474
			c-2.967-2.918-4.259-9.001-3.877-18.247c0.755-16.289,4.128-36.88,10.126-61.774c5.993-24.892,13.03-47.856,21.11-68.884
			c8.074-21.028,15.711-33.868,22.905-38.527c-3.029-8.296-7.827-14.024-14.388-17.186c-6.564-3.163-13.537-4.265-20.917-3.31
			c-7.386,0.959-13.793,3.434-19.218,7.42c-6.69,5.429-13.913,16.915-21.678,34.462c-7.76,17.546-14.954,38.117-21.582,61.712
			c-6.626,23.596-11.674,47.165-15.146,70.709c-3.469,23.547-4.227,44.027-2.268,61.438
			C406.308,763.113,411.957,774.385,421.296,779.518z M849.35,607.538c4.544-13.384,10.223-24.455,17.038-33.211
			c6.815-8.752,13.187-12.964,19.122-12.632c3.282,0.663,5.174,2.542,5.678,5.636c0.504,3.1,0.504,5.974,0,8.631
			c2.653,0.036,5.428-0.622,8.331-1.975c-2.145,7.958-3.784,16.192-4.92,24.713c-0.886,4.922-2.21,10.046-3.976,15.367
			c-4.544,13.261-10.193,24.051-16.944,32.367c-6.754,8.313-13.097,12.184-19.026,11.607c-5.807-1.21-9.182-6.567-10.129-16.077
			C843.575,632.457,845.184,620.98,849.35,607.538z M552.683,662.306c4.419-12.992,9.876-23.722,16.379-32.176
			c6.497-8.458,12.654-12.506,18.46-12.155c3.026,0.71,4.792,2.551,5.299,5.522c0.501,2.973,0.568,5.718,0.187,8.23
			c2.02,0.022,4.104-0.334,6.25-1.068c-6.185,5.955-10.319,13.973-12.4,24.063c-2.081,10.086-2.431,19.967-1.041,29.648
			c-4.422,8.59-9.121,15.268-14.105,20.037c-4.987,4.772-9.689,6.92-14.102,6.451c-5.556-1.253-8.774-6.457-9.657-15.607
			C547.069,686.101,548.643,675.117,552.683,662.306z"/>
		<path fill="#EF165E" d="M1112.695,415.068c-12.028-1.893-23.873,0.627-35.527,7.552c-9.016,6.578-16.568,19.846-22.676,39.808
			c-6.102,19.965-10.62,41.955-13.554,65.976c-2.938,24.024-4.122,45.382-3.552,64.067c0.567,18.688,3.092,29.973,7.581,33.859
			c4.625,3.1,10.044,4.356,16.255,3.764c6.214-0.587,11.416-2.417,15.616-5.485c1.21-1.52,3.228-10.025,6.043-25.514
			c2.451-13.384,5.911-29.862,10.389-49.428c4.471-19.565,10.177-39.976,17.115-61.235c6.94-21.257,15.499-41.3,25.683-60.119
			C1132.515,421.372,1124.724,416.959,1112.695,415.068z"/>
		<path fill="#EF165E" d="M1056.435,688.352c6.791-2.383,12.409-6.379,16.839-11.984c4.433-5.609,6.576-11.506,6.424-17.697
			c-0.289-6.176-2.784-10.584-7.486-13.224c-4.705-2.64-10.497-2.895-17.386-0.762c-6.795,2.386-12.406,6.376-16.842,11.984
			c-4.433,5.609-6.643,11.513-6.628,17.713c0.425,6.169,2.987,10.571,7.693,13.21
			C1043.754,690.233,1049.55,690.483,1056.435,688.352z"/>
		<path fill="#EF165E" d="M839.805,778.924c-239.426,90.184-582.339,284.863-663.4,133.275c0,0-44.926,109.506,138.217,112.935
			c183.143,3.429,436.493-122.991,514.962-162.24c51.424-25.722,124.313-49.46,158.822-47.836
			c34.509,1.624,53.185,48.87-5.724,51.286c0,0,44.73,41.084,98.686-3.068C1135.323,819.123,1079.232,688.74,839.805,778.924z"/>
	</g>
</g>
</svg>
